<?xml version="1.0" encoding="utf-8"?>
<!-- Generator: Adobe Illustrator 23.0.1, SVG Export Plug-In . SVG Version: 6.00 Build 0)  -->
<svg version="1.1" id="Capa_1" xmlns="http://www.w3.org/2000/svg" xmlns:xlink="http://www.w3.org/1999/xlink" x="0px" y="0px"
	 viewBox="0 0 353.43 423.18" enable-background="new 0 0 353.43 423.18" xml:space="preserve">
<g>
	<path fill="#FFFFFF" d="M144.7,224.82c-17.51,4.79-34.38,6.23-51.43,5.27c-25.98-1.46-50.24-7.9-70.67-25.14
		C12.14,196.14,1.73,180.47,0,170.08c4.03,0,8-0.14,11.96,0.1c1,0.06,2.4,1.1,2.81,2.05c13.42,30.79,39.18,43.4,70.44,47.68
		c19.2,2.63,38.2,1.08,56.93-3.97c3.43-0.92,5.23-2.32,5.71-6.2c3.14-24.93,6.47-49.84,9.93-74.73c4.42-31.83,9.2-63.61,21.15-93.72
		c4.88-12.29,11.03-23.96,21.93-32.23c23.41-17.75,52.8-8.51,61.88,19.29c6.56,20.09,5.8,40.44,1.73,60.72
		c-8.47,42.2-28.21,78.23-61.63,105.71c-10.67,8.77-23.46,15-35.46,22.07c-2.65,1.56-4.18,3.01-4.98,6.11
		c-3.31,12.71-6.36,25.54-10.76,37.88c-4.39,12.33-10.28,24.12-15.79,36.77c5.78,2.36,12.29,5.09,18.87,7.68
		c16.23,6.4,32.27,13.4,48.81,18.86c12.83,4.23,26.34,6.06,39.82,1.99c2.99-0.9,5.9-2.26,8.63-3.8c3.31-1.87,5.31-4.27,4.87-8.83
		c-0.68-7.13,2.94-16.13,7.94-22.18c0.63,3.23,1.18,6.06,1.73,8.88c0.33-0.04,0.65-0.09,0.98-0.13c0.1-0.57,0.31-1.14,0.28-1.7
		c-0.38-6.76,1.48-12.31,6.38-17.53c12.04-12.82,21.18-27.67,27.92-43.96c0.17-0.42,0.61-0.73,2.48-1.13
		c0.38,8.2,0.75,16.39,1.13,24.46c3.05-8.62,3.25-17.83,3.27-27.12c0.01-2.81,0.11-6.33,1.69-8.3
		c9.06-11.32,13.43-24.23,15.01-38.47c1.27-11.49,5.56-21.99,11.83-31.36c4.91,13.64,10.61,26.88,14.28,40.66
		c2.15,8.09,1.93,17.14,1.05,25.57c-0.41,3.98-4.7,7.68-7.59,11.22c-1.64,2.01-4,3.45-5.63,6.03c3.99-1.9,7.98-3.8,13.19-6.28
		c-1.34,6.07-1.83,11.59-3.95,16.39c-0.97,2.2-5.03,3.4-7.92,4.31c-3.36,1.06-6.98,1.3-10.48,2.51c5.5,0,10.99,0,16.9,0
		c-4.03,12.56-10.03,23.99-18.74,33.64c-6.18,6.85-13.59,12.59-20.31,18.98c-1.04,0.98-1.35,2.73-1.99,4.13
		c0.27,0.42,0.55,0.84,0.82,1.26c-6.14,2.3-12.29,4.6-18.79,7.03c1.3,0.8,2.66,1.64,5.12,3.16c-4.74,1.24-8.48,2.22-12.78,3.35
		c1.76,0.74,3.25,1.37,4.77,2.01c-4.55,4.76-10.18,5.75-16.82,3.42c-1.62-0.57-4.07-0.87-5.35-0.06
		c-15.47,9.93-32.28,10.22-49.63,7.53c-23.03-3.58-43.68-13.76-64.67-23.04c-5.78-2.56-11.65-4.95-17.35-7.68
		c-2.72-1.3-4.36-0.92-6.34,1.44c-14.51,17.32-32.73,28.1-55.47,30.31c-10.67,1.03-21.41,1.36-31.04-4.6
		c-15.82-9.8-15.67-31.56,0.17-42.6c10.05-7,21.47-8.68,33.3-8.45c15.03,0.3,29.91,1.94,44.4,6.15c2.61,0.76,4.19,0.73,5.69-1.94
		C133.49,269.51,139.74,247.91,144.7,224.82z M166.16,204.82c11.28-4.41,29.14-18.48,39.48-30.45
		c27.11-31.41,42.07-67.91,45.64-109.08c1.2-13.83,0.3-27.64-5.14-40.73c-5.51-13.26-17.04-18.12-29.04-11.88
		c-3.45,1.79-7.11,4.35-9.09,7.54c-5.21,8.41-10.57,16.98-14.05,26.18c-8.62,22.81-12.62,46.83-16.1,70.86
		c-3,20.74-5.29,41.59-7.99,62.37C168.79,187.99,167.43,196.3,166.16,204.82z M114.28,302.34c-0.37-0.29-0.7-0.74-1.13-0.88
		c-14-4.65-28.4-7.1-43.14-7.2c-7.45-0.05-14.58,1.68-20.64,6.34c-5.72,4.4-9.7,10.02-8.32,17.53c1.39,7.55,6.95,11.28,14.13,13.04
		C75.22,336.08,102.8,322.69,114.28,302.34z M330.33,230.83c-8.6,31.64-26.96,56.97-50.55,78.98
		C306.98,290.02,322.58,262.85,330.33,230.83z"/>
	<path fill="#FFFFFF" d="M61.69,420.19c13.52,0.98,25.92,1.42,30.88-14.99c0.45,0.5,0.89,1.01,1.34,1.51
		c-1.8,4.67-3.47,9.4-5.5,13.96c-0.37,0.83-2.19,1.42-3.34,1.43c-12.97,0.1-25.94,0.06-39.32-0.48c8.46,0.97,8.99-5.66,11.08-10.7
		c5.16-12.45,10.26-24.92,15.37-37.39c0.61-1.5,1.1-3.05,1.77-4.91c-2.39-0.39-4.28-0.69-6.17-0.99c0.02-0.31,0.04-0.62,0.05-0.93
		c7.01,0,14.02,0,21.03,0c-7.94-0.35-8.51,6.17-10.52,11.12c-5.06,12.49-10.01,25.02-14.99,37.54
		C62.83,416.71,62.41,418.11,61.69,420.19z"/>
	<path fill="#FFFFFF" d="M129.21,421.35c-8,3.03-10.9,1.15-10.93-5.01c-3.45,2-7.04,4.88-11.12,6.16c-2.35,0.73-6.18-0.39-8.07-2.09
		c-1.17-1.05-0.57-5,0.3-7.22c2.92-7.42,6.33-14.64,9.7-22.25c-1.04-0.64-2.01-1.23-3.53-2.16c3.97-0.2,7.2-0.36,11.06-0.55
		c-2.3,5.45-4.69,10.87-6.96,16.34c-1.11,2.67-2.6,5.16-3.59,7.88c-0.76,2.08-2.82,8.87,1.62,7.71c5.35-1.39,8.89-5.1,11.91-9.58
		c3.58-5.3,5.92-11.3,8.35-17.18c1.99-4.84,2.07-4.81,8.57-4.48c-1.89,4.43-3.68,8.59-5.45,12.77c-1.95,4.59-3.98,9.16-5.81,13.8
		C124.12,418.36,123.58,421.22,129.21,421.35z"/>
	<path fill="#FFFFFF" d="M239.92,414.83c-4.39,7.54-12.83,10.22-19.13,7.03c-5.94-3-7.88-9.14-4.35-16.32
		c4.54-9.2,11.66-15.69,22.06-17.72c3.36-0.66,7-0.41,8.22,3.61c1.17,3.86-0.67,7.3-4.18,8.64c-4.25,1.62-8.89,2.8-13.4,2.95
		c-3.62,0.13-5.23,1.39-5.84,4.52c-0.84,4.3-3.17,9.29,1.54,12.37c4.79,3.13,8.79-0.05,12.28-3.47
		C237.57,416.02,238.21,415.81,239.92,414.83z M226.39,400.03c0,0.06,0,0.11,0,0.17c0.04,0.46,0.43,0.83,0.86,0.98
		s0.9,0.15,1.36,0.12c2.22-0.14,4.44-0.6,6.42-1.62c3-1.54,4.74-3.93,5.1-7.26c0.13-1.23,0.3-1.57-0.87-1.92
		c-1.35-0.4-3.3,0.16-4.45,0.86c-1.1,0.67-2.01,1.6-2.9,2.53c-1.6,1.64-3.19,3.29-4.79,4.93
		C226.78,399.17,226.42,399.57,226.39,400.03z"/>
	<path fill="#FFFFFF" d="M299.92,414.83c-4.39,7.54-12.83,10.22-19.13,7.03c-5.94-3-7.88-9.14-4.35-16.32
		c4.54-9.2,11.66-15.69,22.06-17.72c3.36-0.66,7-0.41,8.22,3.61c1.17,3.86-0.67,7.3-4.18,8.64c-4.25,1.62-8.89,2.8-13.4,2.95
		c-3.62,0.13-5.23,1.39-5.84,4.52c-0.84,4.3-3.17,9.29,1.54,12.37c4.79,3.13,8.79-0.05,12.28-3.47
		C297.57,416.02,298.21,415.81,299.92,414.83z M286.39,400.03c0,0.06,0,0.11,0,0.17c0.04,0.46,0.43,0.83,0.86,0.98
		c0.43,0.16,0.9,0.15,1.36,0.12c2.22-0.14,4.44-0.6,6.42-1.62c3-1.54,4.74-3.93,5.1-7.26c0.13-1.23,0.3-1.57-0.87-1.92
		c-1.35-0.4-3.3,0.16-4.45,0.86c-1.1,0.67-2.01,1.6-2.9,2.53c-1.6,1.64-3.19,3.29-4.79,4.93
		C286.78,399.17,286.42,399.57,286.39,400.03z"/>
	<path fill="#FFFFFF" d="M244.66,421.75c0.42,0.05,3.58-8.09,3.98-8.97c1.42-3.19,2.85-6.37,4.24-9.58
		c1.25-2.87,2.84-5.81,3.39-8.88c0.09-0.48,1.31-6.15,0.54-6.1c1.86-0.12,4.85-0.31,8.57-0.55c-0.85,2.58-1.5,4.56-2.15,6.54
		c2.43-1.63,4.69-3.47,7.21-4.96c2.45-1.45,5.31-0.27,7.49,1.26c-0.93,2.11-1.85,4.22-2.78,6.32c-0.36-1.51-1.06-2.93-2.02-4.14
		c-0.5-0.63-1.14-1.24-1.94-1.34c-1.07-0.13-2.01,0.66-2.77,1.42c-3.43,3.41-6.48,7.24-8.96,11.4c-2.63,4.4-4.27,9.24-6.47,13.84
		C250.87,422.42,250.86,422.42,244.66,421.75z"/>
	<path fill="#FFFFFF" d="M206.03,390.72c-1.14-0.74-2.04-1.32-3.86-2.5c4.42,0,7.81,0,11.98,0c-1.07,2.56-2.06,5.05-3.15,7.51
		c-1.82,4.15-3.72,8.27-5.54,12.42c-1.49,3.39-3.41,6.88-3.5,10.67c-0.06,2.62,1.34,1.79,3.37,1.16c1.76-0.54,3.48-1.27,4.83-2.56
		c-0.72,0.68-0.87,1.98-1.59,2.73c-0.83,0.86-1.84,1.54-2.92,2.04c-2.08,0.97-4.59,1.33-6.78,0.54c-3.63-1.32-4.62-4.28-2.63-9.13
		C199.33,406.07,202.64,398.63,206.03,390.72z"/>
	<path fill="#FFFFFF" d="M188.8,397.33c0.74-2.29,0.48-6.52-0.95-7.52c-2.15-1.5-5.95-1.71-8.65-0.99
		c-1.83,0.49-5.06,2.58-6.68,4.35c-0.79-0.95-1.29-2.27-2.04-3.3c-1.84-2.53-4.37-2.76-7.1-1.6c-2,0.85-5.28,3.81-7.48,3.4
		c0-0.29,0.31-3.47,0.4-3.47c-2.67,0-5.35,0-8.02,0c1.5,0-3.11,12.25-3.43,13.03c-0.65,1.58-8.93,20.19-8.77,20.28
		c1.36,0.74,3.02,1.03,4.49,0.52c2.35-0.8,3.57-3.38,4.4-5.54c3.42-8.84,7.03-17.83,14.24-24.35c1.2-1.08,5.06-3.7,6.26-1.69
		c0.66,1.11-0.09,3.45-0.35,4.58c-0.73,3.17-1.8,6.37-3.09,9.36c-2.49,5.74-4.99,11.49-7.48,17.23c1.68,0.57,3.57,1.09,5.16,0.31
		c1.42-0.69,2.19-2.23,2.87-3.66c2.08-4.35,4.13-8.71,6.17-13.07c1.32-2.83,2.49-5.73,3.97-8.49c1.59-2.97,3.11-4.04,6.26-5.19
		c1.36-0.5,4.49-1.48,4.47,0.96c-0.01,1.77-0.55,3.58-1.02,5.28c-1.17,4.24-3.28,8.04-5.04,12.05c-1.26,2.86-3.39,8.45-0.79,11.18
		c1.34,1.41,4.9,0.7,7.49,0.92c0.23-0.49,0.46-0.98,0.69-1.47c-5-0.17-4.4-2.69-3.14-5.61C184.11,409.03,186.86,403.31,188.8,397.33
		z"/>
	<path fill="#FFFFFF" d="M231.68,368.23c2.71,0,4.6,0,7.2,0c0.67,4.14,1.38,8.47,2.08,12.81c-0.41,0.15-0.82,0.29-1.23,0.44
		C237.16,377.25,234.6,373.02,231.68,368.23z"/>
	<path fill="#FFFFFF" d="M221.7,373.27c-2.7,1.63-4.2,3.26-5.32,3.03c-1.34-0.28-2.35-2.14-3.5-3.31c1.21-1.06,2.34-2.83,3.65-2.98
		C217.71,369.87,219.09,371.52,221.7,373.27z"/>
</g>
</svg>
